<?xml version="1.0" encoding="UTF-8" standalone="no"?>
<!DOCTYPE svg PUBLIC "-//W3C//DTD SVG 1.1//EN" "http://www.w3.org/Graphics/SVG/1.1/DTD/svg11.dtd">
<svg width="100%" height="100%" viewBox="0 0 2550 3300" version="1.1" xmlns="http://www.w3.org/2000/svg" xmlns:xlink="http://www.w3.org/1999/xlink" xml:space="preserve" xmlns:serif="http://www.serif.com/" style="fill-rule:evenodd;clip-rule:evenodd;stroke-linecap:round;stroke-linejoin:round;stroke-miterlimit:1.5;">
    <g transform="matrix(1,0,0,10.6911,5.82382,-14009.4)">
        <ellipse cx="1267.34" cy="1446.8" rx="127.449" ry="11.507" style="fill:rgb(235,235,235);fill-opacity:0;stroke:black;stroke-width:0.55px;"/>
    </g>
    <g transform="matrix(1,0,0,1,2.17931,0.142392)">
        <path d="M1143.74,1329.42L1113.4,1312.25C1113.4,1312.25 1086.91,1288.09 1096.4,1262.61L1127.21,1175.97C1127.21,1175.97 1148.71,1155.57 1161.68,1175.23C1161.68,1175.23 1160.43,1190.98 1171.46,1207.05C1182.49,1223.12 1205.86,1228.75 1205.86,1228.75C1205.86,1228.75 1229.09,1237.01 1230.86,1245.71C1232.63,1254.42 1237.85,1273.48 1237.85,1273.48C1237.85,1273.48 1236.7,1271.38 1248.17,1278.01C1259.63,1284.63 1262.95,1260.46 1263.86,1251L1253.19,1234.27C1253.19,1234.27 1266.81,1205.08 1275.81,1198.72C1284.8,1192.36 1327.2,1161.77 1339.08,1163.89C1350.95,1166.03 1364.07,1153.81 1381.32,1156.54C1398.57,1159.28 1400.61,1183.04 1392.56,1188.46C1384.51,1193.88 1372.45,1214.3 1373.33,1216.07C1374.21,1217.85 1369.96,1237.8 1379.31,1245.38C1388.66,1252.97 1393.45,1270.16 1390.19,1279.62C1386.93,1289.07 1384.39,1298.19 1383.13,1308.18C1381.88,1318.17 1381.14,1320.74 1382.54,1325.33C1382.54,1325.33 1404.44,1324.84 1409.62,1313.47C1409.62,1313.47 1416.76,1289 1428.92,1285.6C1441.09,1282.21 1443.13,1274.53 1482.01,1285.51C1520.9,1296.5 1539.69,1306.73 1539.69,1306.73C1539.69,1306.73 1561.01,1319.21 1562.59,1324.62C1564.18,1330.04 1570.01,1335.69 1564.21,1346.56C1558.41,1357.44 1551.57,1347.9 1533.3,1354.51C1515.03,1361.12 1500.04,1360.34 1500.04,1372.23C1500.04,1384.12 1506.71,1394.82 1498.93,1403.32C1491.14,1411.82 1489.29,1424.93 1471.6,1428.71C1453.9,1432.49 1441.38,1437.57 1442.54,1443.22C1443.71,1448.86 1458.74,1454.19 1458.62,1454.43C1458.5,1454.66 1486.34,1450.4 1493.12,1443.66C1499.89,1436.92 1517.6,1451.05 1522.97,1462.01C1528.33,1472.98 1534.59,1484.19 1544.41,1496.24C1554.24,1508.28 1546.91,1513.05 1556.05,1517.3C1565.18,1521.56 1561.28,1538.41 1561.72,1541.67C1562.16,1544.93 1578.14,1560.55 1572.21,1566.67C1566.27,1572.79 1552.29,1576.98 1534.59,1564.53C1516.88,1552.08 1513.08,1548.05 1494.28,1556.36C1475.48,1564.66 1469.06,1582.25 1453.66,1576.56C1438.26,1570.87 1415.05,1563.42 1409.3,1561.7C1403.54,1559.99 1385.12,1567.24 1396.51,1580.48C1407.9,1593.73 1413.54,1596.54 1426.03,1600.08C1438.53,1603.61 1459.96,1631.01 1450.8,1644.33C1441.65,1657.64 1431.82,1697.58 1427.93,1710.36C1424.05,1723.14 1425.67,1739.04 1412.84,1747.71C1400,1756.38 1375.8,1752.99 1374.17,1732.75C1372.56,1712.5 1368.81,1695.93 1356.09,1694.35C1343.37,1692.78 1318.94,1686.5 1311.63,1681.46C1304.32,1676.42 1297.07,1652.22 1286.29,1643.95C1275.5,1635.68 1272.57,1648.45 1277.65,1656.27C1282.73,1664.09 1286.52,1673.68 1290.31,1680.04C1294.09,1686.4 1290.61,1698.57 1272.72,1706.43C1254.83,1714.29 1254.05,1734.91 1235.83,1735.4C1217.61,1735.88 1203.03,1758.34 1183.36,1758.32C1163.7,1758.29 1134.67,1769.69 1140.09,1739.21C1145.51,1708.73 1159.25,1717.59 1158.57,1699.34C1157.89,1681.09 1151.24,1661.57 1142.86,1656.17C1134.48,1650.78 1139.52,1626.6 1142.39,1622.35C1145.26,1618.1 1153.66,1603.94 1151.87,1595.81C1150.09,1587.68 1133.5,1600.77 1133.63,1604.8C1133.76,1608.82 1130.62,1625.27 1120.18,1626.56C1109.75,1627.86 1087.42,1646.04 1071.28,1632.06C1055.15,1618.08 1018.18,1619.53 1008.32,1610.44C998.464,1601.36 966.885,1604.96 973.046,1573.66C979.207,1542.36 1013.31,1559.93 1026.06,1552.21C1038.81,1544.49 1028.19,1517.42 1045.18,1507.21C1062.16,1497.01 1086.33,1483.82 1087.93,1478.1C1089.52,1472.38 1090,1458.92 1068.66,1459.98C1047.33,1461.04 1050.86,1482.88 1033.29,1470.27C1015.72,1457.66 970.731,1433.9 968.749,1360.06C968.749,1360.06 962.951,1313.06 1002.16,1338.53C1041.37,1364.01 1032.71,1351.38 1051.05,1347.12C1051.05,1347.12 1064.61,1329.99 1090.82,1333.91C1117.03,1337.83 1118.59,1343.94 1124.84,1346.28C1124.84,1346.28 1153.73,1346.89 1143.74,1329.42Z" style="fill:none;stroke:black;stroke-width:4.17px;"/>
    </g>
    <g transform="matrix(1,0,0,10.426,0,-13842.5)">
        <ellipse cx="1273.17" cy="1467.57" rx="404.256" ry="40.019" style="fill:rgb(235,235,235);fill-opacity:0;stroke:black;stroke-width:0.56px;"/>
    </g>
    <g transform="matrix(1.94951,0,0,18.3107,-866.778,-25457.5)">
        <ellipse cx="1097.68" cy="1469.95" rx="181.127" ry="19.352" style="fill:rgb(235,235,235);fill-opacity:0;stroke:black;stroke-width:0.32px;"/>
    </g>
</svg>
